<mxfile host="65bd71144e">
    <diagram id="gknJp-wWpKwI5nR8IImd" name="Page-1">
        <mxGraphModel dx="1300" dy="924" grid="1" gridSize="10" guides="1" tooltips="1" connect="1" arrows="1" fold="1" page="1" pageScale="1" pageWidth="850" pageHeight="1100" math="0" shadow="0">
            <root>
                <mxCell id="0"/>
                <mxCell id="1" parent="0"/>
                <mxCell id="2" value="" style="swimlane;startSize=0;fillColor=#4D4D4D;strokeWidth=4;" vertex="1" parent="1">
                    <mxGeometry x="10" y="15" width="830" height="865" as="geometry"/>
                </mxCell>
                <mxCell id="8" value="" style="sketch=0;outlineConnect=0;fontColor=#232F3E;gradientColor=none;fillColor=#3F8624;strokeColor=none;dashed=0;verticalLabelPosition=bottom;verticalAlign=top;align=center;html=1;fontSize=12;fontStyle=0;aspect=fixed;pointerEvents=1;shape=mxgraph.aws4.bucket;" vertex="1" parent="2">
                    <mxGeometry x="57.5" y="343" width="75" height="78" as="geometry"/>
                </mxCell>
                <mxCell id="12" value="" style="sketch=0;outlineConnect=0;fontColor=#232F3E;gradientColor=none;fillColor=#3F8624;strokeColor=none;dashed=0;verticalLabelPosition=bottom;verticalAlign=top;align=center;html=1;fontSize=12;fontStyle=0;aspect=fixed;pointerEvents=1;shape=mxgraph.aws4.bucket;" vertex="1" parent="2">
                    <mxGeometry x="57.5" y="464" width="75" height="78" as="geometry"/>
                </mxCell>
                <mxCell id="14" value="" style="outlineConnect=0;dashed=0;verticalLabelPosition=bottom;verticalAlign=top;align=center;html=1;shape=mxgraph.aws3.dynamo_db;fillColor=#2E73B8;gradientColor=none;" vertex="1" parent="2">
                    <mxGeometry x="350" y="105" width="72" height="81" as="geometry"/>
                </mxCell>
                <mxCell id="15" value="" style="sketch=0;points=[[0,0,0],[0.25,0,0],[0.5,0,0],[0.75,0,0],[1,0,0],[0,1,0],[0.25,1,0],[0.5,1,0],[0.75,1,0],[1,1,0],[0,0.25,0],[0,0.5,0],[0,0.75,0],[1,0.25,0],[1,0.5,0],[1,0.75,0]];outlineConnect=0;fontColor=#232F3E;gradientColor=#F78E04;gradientDirection=north;fillColor=#D05C17;strokeColor=#ffffff;dashed=0;verticalLabelPosition=bottom;verticalAlign=top;align=center;html=1;fontSize=12;fontStyle=0;aspect=fixed;shape=mxgraph.aws4.resourceIcon;resIcon=mxgraph.aws4.lambda;" vertex="1" parent="2">
                    <mxGeometry x="205" y="386" width="78" height="78" as="geometry"/>
                </mxCell>
                <mxCell id="16" value="" style="sketch=0;points=[[0,0,0],[0.25,0,0],[0.5,0,0],[0.75,0,0],[1,0,0],[0,1,0],[0.25,1,0],[0.5,1,0],[0.75,1,0],[1,1,0],[0,0.25,0],[0,0.5,0],[0,0.75,0],[1,0.25,0],[1,0.5,0],[1,0.75,0]];outlineConnect=0;fontColor=#232F3E;gradientColor=#F78E04;gradientDirection=north;fillColor=#D05C17;strokeColor=#ffffff;dashed=0;verticalLabelPosition=bottom;verticalAlign=top;align=center;html=1;fontSize=12;fontStyle=0;aspect=fixed;shape=mxgraph.aws4.resourceIcon;resIcon=mxgraph.aws4.lambda;" vertex="1" parent="2">
                    <mxGeometry x="360" y="376.5" width="78" height="78" as="geometry"/>
                </mxCell>
                <mxCell id="18" value="Amazon SageMaker" style="sketch=0;outlineConnect=0;fontColor=#232F3E;gradientColor=none;strokeColor=#ffffff;fillColor=#232F3E;dashed=0;verticalLabelPosition=middle;verticalAlign=bottom;align=center;html=1;whiteSpace=wrap;fontSize=10;fontStyle=1;spacing=3;shape=mxgraph.aws4.productIcon;prIcon=mxgraph.aws4.sagemaker;" vertex="1" parent="2">
                    <mxGeometry x="525" y="382.5" width="80" height="110" as="geometry"/>
                </mxCell>
                <mxCell id="36" value="DynamoDB" style="rounded=0;whiteSpace=wrap;html=1;" vertex="1" parent="2">
                    <mxGeometry x="350" y="188" width="80" height="30" as="geometry"/>
                </mxCell>
                <mxCell id="38" value="Lambda" style="rounded=0;whiteSpace=wrap;html=1;" vertex="1" parent="2">
                    <mxGeometry x="205" y="475" width="80" height="30" as="geometry"/>
                </mxCell>
                <mxCell id="39" value="Lambda" style="rounded=0;whiteSpace=wrap;html=1;" vertex="1" parent="2">
                    <mxGeometry x="360" y="458.5" width="80" height="30" as="geometry"/>
                </mxCell>
                <mxCell id="43" value="Prep Zone" style="rounded=0;whiteSpace=wrap;html=1;" vertex="1" parent="2">
                    <mxGeometry x="210" y="530" width="80" height="30" as="geometry"/>
                </mxCell>
                <mxCell id="45" value="Data Gathering" style="fillColor=none;strokeColor=#5A6C86;dashed=1;verticalAlign=top;fontStyle=0;fontColor=#5A6C86;" vertex="1" parent="2">
                    <mxGeometry x="40" y="315" width="110" height="245" as="geometry"/>
                </mxCell>
                <mxCell id="46" value="Model Development &#10;and Training" style="fillColor=none;strokeColor=#5A6C86;dashed=1;verticalAlign=top;fontStyle=0;fontColor=#5A6C86;" vertex="1" parent="2">
                    <mxGeometry x="189" y="335" width="110" height="185" as="geometry"/>
                </mxCell>
                <mxCell id="49" value="Testing and Validation" style="fillColor=none;strokeColor=#5A6C86;dashed=1;verticalAlign=top;fontStyle=0;fontColor=#5A6C86;" vertex="1" parent="2">
                    <mxGeometry x="350" y="335" width="110" height="185" as="geometry"/>
                </mxCell>
                <mxCell id="48" value="Automation Zone" style="rounded=0;whiteSpace=wrap;html=1;" vertex="1" parent="2">
                    <mxGeometry x="365" y="522.5" width="80" height="30" as="geometry"/>
                </mxCell>
                <mxCell id="50" value="Deployment and&#10;Â Monitoring" style="fillColor=default;strokeColor=#5A6C86;dashed=1;verticalAlign=top;fontStyle=0;fontColor=#5A6C86;fontFamily=Verdana;fillStyle=hatch;" vertex="1" parent="2">
                    <mxGeometry x="510" y="335" width="110" height="185" as="geometry"/>
                </mxCell>
                <mxCell id="51" value="Automation Zone" style="rounded=0;whiteSpace=wrap;html=1;" vertex="1" parent="2">
                    <mxGeometry x="525" y="522.5" width="80" height="30" as="geometry"/>
                </mxCell>
            </root>
        </mxGraphModel>
    </diagram>
</mxfile>